<svg xmlns="http://www.w3.org/2000/svg" viewBox="0 0 64 64">
  <defs>
    <linearGradient id="g" x1="8" y1="8" x2="56" y2="56" gradientUnits="userSpaceOnUse">
      <stop stop-color="#0ea5e9"/>
      <stop offset=".55" stop-color="#2563eb"/>
      <stop offset="1" stop-color="#7c3aed"/>
    </linearGradient>
  </defs>
  <rect x="3" y="3" width="58" height="58" rx="15" fill="#07111f"/>
  <rect x="3.75" y="3.75" width="56.5" height="56.5" rx="14.25" fill="none" stroke="url(#g)" stroke-width="1.5"/>
  <path d="M14 44V19h13.4c7.1 0 11.3 3.6 11.3 9 0 3.8-2.1 6.6-5.8 8l7.1 8H31.7l-6-7.1h-4.2V44H14Zm7.5-13.2h5.2c2.9 0 4.4-1 4.4-3 0-2.1-1.5-3-4.4-3h-5.2v6Z" fill="#f8fafc"/>
  <path d="M38 19h7l6.5 12V19H58v25h-6.7L44.5 31.6V44H38V19Z" fill="url(#g)"/>
</svg>